<!DOCTYPE svg PUBLIC "-//W3C//DTD SVG 1.1//EN" "http://www.w3.org/Graphics/SVG/1.1/DTD/svg11.dtd" [
	<!ENTITY ns_flows "http://ns.adobe.com/Flows/1.0/">
]><svg xmlns="http://www.w3.org/2000/svg" width="200" height="146" viewBox="0 0 200 146"><path fill="none" d="M0 0h200v146H0z"/><path fill="#EC0B43" d="M200 30.718C178.775 11.816 150.81.308 120.148.308 53.794.31 0 54.104 0 120.462c0 8.767.963 17.304 2.75 25.54H200V30.718z"/><path fill="#FFF" d="M45.522 92.767c.376 0 .67-.114.883-.337.216-.23.32-.523.32-.88V80.183c0-.363-.104-.657-.32-.89-.213-.233-.507-.354-.883-.354-.384 0-.685.12-.89.353-.21.232-.31.526-.31.89V91.55c0 .356.1.648.31.88.206.222.507.337.89.337M61.828 80.782c.206-.198.31-.46.31-.78 0-.33-.103-.595-.31-.782-.207-.187-.49-.28-.854-.28H51.48c-.352 0-.63.094-.84.28-.203.188-.308.452-.308.783 0 .318.104.58.31.78.207.2.486.303.837.303h3.543v10.458c0 .362.106.654.313.886.204.23.505.337.89.337.392 0 .686-.108.894-.337.207-.23.313-.523.313-.886V81.086h3.543c.36 0 .645-.102.852-.304M76.427 92.427c.216.226.51.34.88.34.39 0 .69-.114.895-.34.21-.225.31-.52.31-.88V80.183c0-.377-.095-.675-.29-.903-.192-.227-.47-.34-.83-.34-.468 0-.862.252-1.184.763l-4.005 6.474-4.093-6.454c-.32-.523-.733-.783-1.24-.783-.335 0-.606.108-.814.313-.21.205-.31.52-.31.953V91.55c0 .812.372 1.22 1.124 1.22.744 0 1.12-.407 1.12-1.22v-8.06l2.967 4.65c.294.468.67.7 1.123.7.44 0 .808-.242 1.102-.718l2.928-4.734v8.158c-.002.362.104.656.317.88M92.51 89.433c-.697.927-1.707 1.39-3.018 1.39-1.294 0-2.294-.463-2.994-1.39-.7-.932-1.054-2.12-1.054-3.576 0-1.458.353-2.65 1.054-3.578.7-.933 1.7-1.397 2.994-1.397 1.31 0 2.32.464 3.018 1.396.704.927 1.055 2.12 1.055 3.577 0 1.456-.35 2.644-1.055 3.576m-3.018-10.696c-2.094 0-3.717.67-4.86 2.007-1.142 1.338-1.714 3.04-1.714 5.112 0 2.083.572 3.786 1.715 5.118s2.766 1.996 4.86 1.996c2.1 0 3.724-.664 4.87-1.996 1.15-1.332 1.726-3.035 1.726-5.118 0-2.072-.576-3.774-1.728-5.112-1.145-1.337-2.77-2.007-4.87-2.007"/><path fill="#FFF" d="M60.61 84.417c0-.18-.02-.32-.06-.416-.035-.097-.107-.232-.222-.41-.02-.037-.09-.113-.207-.232-.06-.057-.113-.117-.17-.17-.054-.058-.106-.107-.162-.15-.11-.103-.182-.15-.22-.15-.07 0-.177.033-.328.102-.154.06-.243.12-.263.167-.006.044-.01.103-.01.183 0 .025 0 .057.004.096 0 .038.005.082.007.12.008.043.01.085.01.126.003.044.003.075.003.1 0 .033.077.115.23.24.144.126.267.254.37.386.104.12.156.252.156.392 0 .144-.01.276-.03.403-.02.12-.056.23-.1.338-.045.105-.107.207-.18.304-.076.098-.17.19-.28.293-.036.026-.065.064-.093.104-.03.05-.06.093-.086.14-.022.055-.04.104-.057.153-.012.052-.022.1-.022.14 0 .118.048.212.14.29.088.074.194.108.322.108.232 0 .438-.163.625-.498.182-.323.33-.706.444-1.142.117-.442.177-.778.18-1.013M61.646 87.327c-.118.133-.226.27-.326.417-.062.085-.123.182-.176.29-.057.102-.107.212-.15.324-.045.11-.08.225-.105.344-.028.114-.042.223-.042.325 0 .212.054.398.158.568.102.17.23.332.39.483.158.15.326.294.51.43.183.133.354.267.51.403.156.137.288.272.393.414.103.14.153.29.153.452 0 .13-.03.278-.104.44-.067.165-.185.314-.35.445-.058.05-.122.086-.187.12-.067.036-.133.067-.192.086-.062.026-.12.046-.173.057-.054.013-.094.02-.123.02-.026 0-.06 0-.098.002-.037 0-.08.005-.12.005-.038.003-.07.005-.106.012-.035.008-.057.014-.07.02-.107.057-.192.126-.25.205-.057.085-.086.198-.086.35 0 .17.035.298.1.392.07.087.204.13.41.13.15 0 .312-.026.492-.087.18-.057.356-.145.533-.255.176-.11.343-.24.507-.392.168-.15.313-.318.438-.495.127-.178.225-.365.3-.566.076-.203.114-.408.114-.62 0-.144-.026-.275-.078-.403-.05-.133-.115-.25-.196-.37-.087-.117-.18-.234-.285-.345-.103-.105-.217-.218-.33-.322-.127-.114-.252-.225-.38-.325-.126-.107-.25-.212-.372-.318-.12-.108-.238-.217-.35-.34-.114-.112-.218-.245-.313-.383.13-.14.27-.28.416-.41.15-.14.326-.298.525-.49.13-.13.237-.27.332-.423.095-.154.142-.286.142-.403 0-.33-.143-.497-.424-.497-.102 0-.208.033-.325.094-.116.063-.232.15-.353.256-.124.105-.24.225-.36.364M98.023 88.94c.01.078.018.155.03.223.01.07.022.146.03.234.01.084.015.188.02.315.007.127.014.285.014.475 0 .08-.007.182-.007.302l-.02.403-.018.448c-.01.16-.017.307-.023.452-.007.145-.013.277-.016.4-.004.123-.006.22-.006.3 0 .08.002.18.01.307.005.13.02.257.05.384.03.126.076.232.135.328.06.094.143.14.253.14.075 0 .136-.007.184-.02.047-.02.088-.04.13-.057.033-.028.068-.06.103-.096.035-.038.072-.082.115-.132.064-.38.14-.737.225-1.067.088-.335.192-.65.32-.952.123-.298.27-.58.444-.847.173-.263.38-.52.618-.77.307-.308.603-.54.888-.7.283-.153.56-.27.83-.356.113-.034.227-.072.337-.1.112-.032.218-.066.313-.105.088-.038.164-.076.217-.12.058-.044.087-.102.087-.16 0-.092-.03-.176-.087-.237-.053-.066-.126-.12-.208-.16-.082-.042-.174-.073-.265-.086-.098-.02-.184-.025-.257-.025-.38 0-.744.087-1.076.27-.338.178-.648.41-.937.694-.287.284-.548.603-.785.953-.233.344-.44.69-.616 1.03-.005-.145 0-.317.017-.526.02-.208.037-.43.06-.656.023-.225.044-.445.067-.662.018-.217.03-.404.03-.563 0-.08-.016-.16-.047-.233-.027-.08-.07-.146-.12-.205-.057-.06-.12-.104-.196-.14-.07-.04-.154-.06-.242-.06-.073 0-.15.02-.225.055-.08.034-.145.085-.208.142-.06.062-.11.132-.146.215-.038.08-.057.164-.057.252 0 .17.003.315.008.425.01.112.016.203.025.284M104.97 88.513c.122-.317.267-.596.43-.825.168-.233.345-.418.54-.546.188-.13.377-.197.557-.197.03 0 .066.01.104.022.038.017.077.034.113.057.037.026.064.062.087.096.025.037.04.075.04.127 0 .108-.015.22-.044.32-.027.103-.08.203-.154.31-.07.107-.17.22-.294.348-.125.125-.28.27-.473.435-.085.073-.187.152-.297.24-.11.088-.22.177-.328.26-.11.084-.215.163-.31.232-.095.07-.17.128-.228.16.045-.37.13-.72.257-1.04m4.626 1.04c-.08 0-.184.073-.316.218-.237.266-.49.512-.763.738-.272.23-.552.43-.84.594-.287.166-.585.297-.885.39-.298.094-.596.14-.887.14-.228 0-.415-.037-.563-.112s-.262-.17-.352-.284c-.088-.11-.145-.236-.182-.376-.03-.136-.048-.265-.048-.392 0-.06.03-.107.088-.145.057-.04.116-.08.175-.11.426-.262.814-.524 1.164-.79.347-.262.647-.523.894-.79.25-.257.445-.52.58-.78.14-.26.205-.518.205-.767 0-.124-.025-.244-.07-.37-.05-.123-.118-.233-.21-.335s-.2-.18-.335-.245c-.13-.065-.283-.098-.45-.098-.228 0-.445.032-.642.1-.197.067-.38.152-.545.258-.17.106-.315.226-.455.36-.135.132-.262.264-.372.39-.177.21-.335.442-.47.69-.133.238-.247.495-.34.756-.083.26-.153.524-.197.79-.046.272-.07.533-.07.79 0 .806.18 1.422.534 1.842.358.416.86.628 1.51.628.282 0 .57-.048.868-.13.298-.088.59-.21.88-.36.294-.15.575-.326.85-.536.275-.202.523-.425.75-.67.204-.206.355-.396.463-.57.11-.17.16-.324.16-.47 0-.127-.01-.215-.027-.27-.023-.054-.058-.083-.102-.083M134.627 87.472c-.01.074-.02.153-.033.234-.016.088-.033.17-.05.256-.018.088-.034.16-.043.224-.043.202-.132.427-.258.675-.126.247-.278.507-.447.76-.17.258-.36.51-.56.75-.202.243-.396.46-.593.65-.193.19-.37.34-.54.455-.165.11-.3.17-.403.17-.1 0-.194-.032-.288-.1-.092-.064-.143-.166-.143-.29 0-.22.024-.426.08-.62.052-.196.118-.38.19-.55.08-.177.158-.328.243-.473.088-.146.163-.278.236-.397.228-.398.453-.735.67-1.014.214-.275.422-.504.614-.677.194-.178.38-.31.556-.396.173-.085.338-.135.488-.15h.013c.046 0 .083.016.117.046.035.033.066.063.092.104.024.043.04.08.053.118.013.033.02.062.02.067 0 .034-.006.086-.016.16m11.178 5.02c.287-.103.528-.23.72-.38.192-.15.338-.316.44-.487.1-.177.147-.335.147-.48l-.064-.255c-.02 0-.048.01-.077.03-.03.023-.07.043-.1.062-.042.03-.083.063-.124.096-.17.12-.32.227-.457.31-.134.088-.267.153-.4.207-.133.05-.27.092-.41.114-.142.02-.31.035-.495.035-.29 0-.536-.063-.732-.182-.2-.12-.358-.287-.482-.51-.118-.217-.204-.476-.258-.777-.054-.3-.078-.633-.078-.992 0-.03.003-.088.012-.182.013-.083.02-.177.035-.272.014-.098.026-.193.04-.278.01-.082.015-.138.015-.176 0-.03.003-.066.003-.102.004-.038.004-.07.004-.1 0-.087-.017-.16-.048-.215-.03-.058-.11-.09-.23-.09-.174 0-.337.032-.488.085-.158.06-.303.135-.44.233-.138.1-.27.218-.4.357-.126.138-.25.283-.376.454-.094.122-.226.276-.386.46-.166.182-.34.375-.517.574-.175.194-.352.384-.517.575-.164.178-.295.332-.385.458.02-.17.033-.315.04-.435.008-.12.016-.25.03-.39.015-.14.036-.306.068-.495.034-.194.082-.45.15-.77.036-.157.067-.31.1-.46.03-.154.06-.294.08-.418.024-.125.042-.226.052-.31.013-.082.02-.124.02-.138 0-.044.006-.1.012-.157.01-.063.013-.123.013-.185 0-.057-.007-.105-.015-.16-.01-.05-.032-.097-.064-.143-.03-.037-.082-.075-.137-.094-.058-.03-.134-.04-.225-.04-.123 0-.228.027-.32.08-.09.054-.163.124-.224.22-.06.084-.106.188-.135.3-.03.122-.043.242-.043.368 0 .033-.003.06-.003.09-.372.37-.737.744-1.093 1.123-.364.38-.748.737-1.155 1.06-.184.147-.348.26-.486.342-.143.082-.284.12-.425.12-.113 0-.217-.058-.303-.172-.088-.12-.16-.265-.214-.434-.06-.172-.1-.355-.123-.545-.03-.19-.044-.36-.044-.512 0-.227.016-.433.054-.604.035-.178.072-.336.114-.476l.116-.366c.04-.106.053-.204.053-.29 0-.04-.02-.085-.065-.132-.044-.045-.092-.09-.15-.14-.058-.047-.118-.095-.168-.138-.058-.05-.092-.09-.106-.128-.03-.057-.058-.114-.09-.17-.027-.054-.06-.105-.098-.15-.037-.046-.08-.082-.133-.115-.053-.027-.113-.04-.186-.04-.374 0-.743.073-1.103.218-.36.144-.7.38-1.03.688-.283.272-.554.595-.815.97-.24.35-.454.713-.644 1.088-.033.025-.054.045-.083.07-.202.19-.382.358-.533.506-.154.143-.31.275-.465.397-.152.123-.323.24-.503.348-.18.114-.396.233-.645.353-.468.228-.96.342-1.468.342-.114 0-.206-.057-.28-.177-.07-.113-.132-.265-.176-.448-.042-.18-.085-.385-.112-.605-.028-.224-.053-.442-.082-.652-.028-.25-.062-.49-.1-.712-.037-.222-.098-.448-.18-.674-.02-.058-.05-.104-.09-.152-.045-.043-.09-.078-.137-.113-.048-.026-.095-.056-.142-.07-.05-.017-.09-.025-.116-.025-.156 0-.327.038-.5.114-.173.074-.348.17-.517.285-.174.117-.338.243-.498.382-.156.146-.3.277-.427.403-.1.108-.2.223-.31.338-.105.12-.204.243-.31.364-.1.12-.202.238-.29.36-.094.112-.184.223-.26.323-.08.1-.16.206-.238.326-.082.12-.16.23-.236.34-.072.108-.14.21-.195.298-.06.095-.106.164-.142.208h-.03c-.02 0-.043-.02-.067-.05-.028-.035-.042-.064-.042-.088 0-.165.02-.367.057-.6.036-.234.067-.505.1-.814.015-.203.034-.393.05-.568.016-.178.03-.348.05-.524.023-.17.043-.348.058-.52.02-.17.034-.358.048-.56.013-.174.025-.373.044-.594.017-.22.038-.448.06-.676.023-.227.045-.447.07-.668.024-.222.054-.417.09-.588.005-.048.02-.112.04-.202.027-.09.053-.183.075-.284l.07-.277c.016-.092.025-.165.025-.22 0-.17-.053-.3-.147-.4-.098-.093-.207-.14-.327-.14-.057 0-.117.013-.17.04-.055.025-.11.06-.155.095-.05.04-.092.083-.128.127-.035.044-.066.087-.083.122-.05.117-.1.225-.134.32-.034.097-.06.194-.078.295-.02.096-.035.196-.048.29-.01.103-.016.212-.02.33-.005.103-.008.227-.016.38l-.02.484v.03l-.005.008c-.1.05-.212.112-.34.18-.126.066-.264.133-.412.205-.15.068-.33.13-.54.19-.207.06-.424.11-.646.16-.224.045-.448.09-.67.124-.218.042-.42.066-.597.096-.18.025-.327.04-.444.053-.115.013-.186.02-.2.02-.057 0-.1-.022-.123-.054-.025-.036-.038-.1-.038-.194 0-.053.006-.112.014-.186.01-.065.027-.158.05-.27.023-.112.055-.25.094-.415.044-.165.092-.376.148-.632.006-.03.02-.088.037-.173l.054-.29c.016-.107.038-.226.06-.344.026-.122.045-.234.06-.336.017-.104.028-.188.038-.264.014-.07.017-.12.017-.14 0-.03-.013-.076-.035-.133-.024-.057-.06-.114-.104-.17-.04-.058-.09-.105-.15-.146-.058-.044-.12-.063-.18-.063-.028 0-.074.02-.13.058-.06.038-.117.082-.175.14-.06.056-.11.12-.153.182-.045.07-.066.13-.066.18l-.026.266c-.016.12-.035.252-.063.404-.02.154-.05.31-.077.48-.032.167-.06.33-.09.488s-.053.304-.08.43c-.023.126-.046.228-.06.298-.076.313-.158.55-.257.7-.096.155-.187.247-.27.276-.042.013-.12.024-.222.04l-.36.036c-.136.012-.285.02-.44.03-.158.008-.312.017-.455.022-.146.007-.278.01-.4.013-.118.006-.21.006-.273.006-.057 0-.117.01-.177.028-.06.02-.113.046-.16.086-.05.043-.09.085-.117.146-.035.06-.052.132-.052.218 0 .04.018.088.053.15.028.06.07.114.12.174.05.055.103.104.17.146.063.04.13.06.195.06.022 0 .075 0 .164-.007l.307-.02c.12-.004.245-.012.38-.024.134-.01.263-.02.383-.025.117-.007.22-.013.31-.02.085-.006.142-.006.16-.006.022 0 .045-.005.067-.005.025-.002.047-.002.072-.002.072 0 .14.01.21.028.064.022.116.066.15.146-.052.408-.108.79-.182 1.133-.064.347-.132.682-.194 1.003-.066.322-.12.638-.164.95-.048.312-.07.635-.07.97 0 .03.008.083.017.168.012.085.04.167.078.255.033.088.088.163.154.233s.15.104.256.104c.02 0 .066-.017.127-.053.06-.033.12-.07.182-.115.063-.046.116-.088.164-.134.052-.044.076-.08.08-.105.01-.085.013-.165.015-.233.004-.068.004-.137.004-.202 0-.067 0-.133-.005-.203-.002-.067 0-.145.004-.233.002-.156.012-.305.022-.444.012-.142.03-.29.05-.438.02-.15.04-.315.065-.486.026-.173.06-.372.1-.593.008-.05.017-.134.035-.244.017-.113.033-.24.06-.38.018-.138.04-.28.062-.428.022-.146.05-.28.072-.4.025-.12.048-.22.07-.297.02-.083.047-.12.068-.12.332-.025.67-.064 1-.117.34-.053.657-.113.967-.18.314-.072.604-.15.88-.246.28-.092.536-.183.76-.284.16-.072.31-.157.45-.26l.107-.085c-.004.048-.006.096-.006.136-.012.164-.018.315-.028.447-.01.14-.015.247-.02.33-.016.26-.037.547-.065.87-.03.32-.063.644-.095.98-.03.33-.068.66-.106.99-.035.326-.066.63-.096.9-.022.143-.04.294-.064.46-.024.16-.048.323-.077.475l-.064.412c-.02.124-.028.212-.028.267 0 .06.02.124.053.19.036.06.083.12.138.167.056.054.12.09.19.126.065.032.134.044.198.044.027 0 .084-.02.16-.066.082-.04.154-.115.227-.222.13-.237.278-.52.45-.834.176-.315.364-.63.576-.947.238-.365.497-.725.774-1.08.278-.352.55-.668.814-.946.266-.28.512-.503.74-.677.224-.17.396-.256.525-.256.03 0 .063.025.088.09.03.056.055.138.075.23.02.097.036.2.057.317.015.116.03.23.04.34l.03.305c.005.086.01.156.015.2.034.29.078.563.132.814.053.258.135.483.242.688.107.2.256.35.444.44.19.09.404.137.65.137.318-.005.635-.06.944-.17.306-.105.605-.25.896-.428.286-.174.564-.372.836-.6.164-.136.318-.277.474-.42-.085.32-.133.608-.133.868 0 .188.034.354.1.497.073.147.16.27.272.367.113.102.243.178.393.228.144.053.295.08.454.08.07 0 .182-.043.327-.118.147-.082.308-.183.482-.306.18-.123.353-.262.53-.414.178-.15.332-.302.457-.447.037-.04.087-.1.153-.184.06-.082.136-.173.22-.273.076-.102.16-.206.242-.308.084-.107.16-.204.233-.29.075-.08.136-.15.192-.204.054-.056.087-.086.104-.086.02 0 .048.025.07.075.018.05.038.104.053.178.017.066.035.138.054.22.017.084.035.152.054.216.035.114.092.228.158.334.07.11.15.203.237.284.09.083.183.146.286.195.1.052.205.077.307.077.24 0 .51-.077.81-.233.304-.152.605-.365.91-.638.287-.266.574-.537.857-.834.278-.285.55-.6.802-.94-.01.132-.022.27-.03.416-.028.424-.067.782-.12 1.08-.05.293-.092.55-.136.77-.014.078-.026.164-.045.266l-.043.303c-.017.103-.028.202-.038.3-.007.1-.01.18-.01.256 0 .058.013.107.043.165.03.058.07.1.128.146.05.044.114.083.19.106.074.026.153.038.242.038.095 0 .174-.012.236-.038.058-.023.114-.075.167-.138.054-.065.114-.15.174-.253.062-.106.144-.24.248-.396.057-.09.15-.208.27-.366.124-.158.264-.327.417-.51.155-.187.32-.38.493-.58l.495-.558c.164-.17.306-.32.436-.448.125-.125.224-.208.293-.25 0 .592.048 1.103.15 1.527.102.432.25.783.445 1.06.198.28.44.484.73.61.284.13.61.2.986.2.368.006.695-.05.98-.148M53.88 99.77c-.38 0-.663.12-.858.357-.196.232-.29.53-.29.893v7.107c0 2.41-.99 3.614-2.968 3.614s-2.965-1.188-2.965-3.57v-7.15c0-.36-.113-.66-.326-.893-.216-.236-.522-.356-.91-.356-.376 0-.67.12-.877.357-.21.232-.313.53-.313.893v7.047c0 1.75.42 3.16 1.26 4.23.842 1.07 2.21 1.603 4.108 1.603.985 0 1.83-.152 2.54-.46.716-.314 1.27-.746 1.66-1.305.393-.56.672-1.173.847-1.85.17-.672.26-1.423.26-2.26v-7.006c0-.362-.1-.66-.3-.894-.204-.235-.492-.355-.87-.355M70.128 99.77c-.726 0-1.088.418-1.088 1.25v8.38l-6.666-8.964c-.32-.44-.716-.665-1.187-.665-.753 0-1.132.425-1.132 1.273v11.424c0 .82.364 1.23 1.09 1.23.74 0 1.113-.41 1.113-1.23v-8.318l6.74 8.944c.322.404.687.604 1.09.604.35 0 .628-.114.84-.342.207-.23.31-.522.31-.89V101.02c0-.832-.367-1.25-1.11-1.25M77.457 99.77c-.392 0-.688.12-.9.357-.205.232-.312.53-.312.893v11.447c0 .366.106.66.313.89.21.227.508.34.9.34.377 0 .67-.113.885-.34.22-.23.327-.523.327-.89V101.02c0-.36-.108-.66-.327-.893-.214-.236-.508-.356-.886-.356M93.706 99.87c-.767-.305-1.326.033-1.677 1.033l-3.455 9.363-3.75-9.465c-.366-.916-.92-1.218-1.68-.91-.36.136-.584.394-.664.78-.08.377-.038.728.124 1.04l4.66 11.298c.26.597.647.89 1.17.89.582 0 .992-.31 1.235-.928l4.458-11.424c.35-.86.21-1.42-.422-1.676M106.1 111.538h-5.836v-3.915h4.504c.363 0 .65-.102.854-.3.213-.205.318-.467.318-.79 0-.337-.105-.6-.318-.785-.204-.193-.49-.285-.854-.285h-4.504v-3.53h5.633c.352 0 .63-.097.84-.298.204-.192.313-.45.313-.775 0-.334-.108-.6-.313-.796-.21-.195-.488-.296-.84-.296h-6.822c-.388 0-.69.12-.908.356-.215.235-.327.534-.327.9v11.423c0 .366.114.663.335.897.224.235.53.353.922.353h7.003c.348 0 .63-.098.837-.29.212-.195.31-.455.31-.78 0-.336-.098-.603-.31-.796-.21-.197-.49-.292-.838-.292M117.195 105.795c-.5.373-1.264.556-2.298.556-.498 0-.956-.024-1.373-.08v-4.318c.67-.082 1.186-.12 1.534-.12 1.922 0 2.884.726 2.884 2.18 0 .817-.25 1.418-.747 1.783m.747 1.888c.777-.27 1.398-.732 1.854-1.393.46-.66.684-1.468.684-2.42 0-2.803-1.74-4.203-5.22-4.203-1.224 0-2.233.087-3.026.265-.754.163-1.126.625-1.126 1.395v11.14c0 .367.1.663.31.89.212.228.508.346.9.346.375 0 .67-.118.882-.346.22-.227.325-.522.325-.89v-4.38c.362.057.757.083 1.193.083.397 0 .69-.013.864-.038l2.862 4.72c.513.85 1.124 1.067 1.836.663.31-.186.483-.463.524-.833.04-.372-.063-.74-.308-1.1l-2.554-3.9zM132.752 106.414c-.516-.272-1.082-.53-1.694-.77-.612-.24-1.177-.442-1.694-.605-.52-.163-.953-.393-1.303-.696-.347-.303-.526-.67-.526-1.1 0-.97.67-1.453 2-1.453.793 0 1.62.18 2.484.543.98.432 1.623.36 1.916-.217.35-.688.116-1.256-.703-1.697-.984-.57-2.152-.847-3.513-.847-1.507 0-2.654.333-3.442 1.006-.79.672-1.18 1.587-1.18 2.74 0 .948.24 1.72.728 2.323.48.607 1.072 1.05 1.764 1.326.69.27 1.382.518 2.067.734.688.21 1.274.496 1.758.85.48.35.725.81.725 1.37 0 .58-.218 1.016-.654 1.312-.44.298-1.034.44-1.788.44-.944 0-1.95-.245-3.025-.744-.892-.358-1.47-.28-1.737.243-.188.352-.203.69-.05 1.032.155.336.46.622.915.865 1.076.553 2.357.827 3.838.827 1.654 0 2.892-.387 3.715-1.163.82-.77 1.23-1.81 1.23-3.117 0-.764-.176-1.427-.523-1.976-.35-.554-.786-.965-1.305-1.23M139.667 99.77c-.392 0-.688.12-.9.357-.207.232-.312.53-.312.893v11.447c0 .366.104.66.313.89.212.227.508.34.9.34.378 0 .67-.113.887-.34.217-.23.324-.523.324-.89V101.02c0-.36-.108-.66-.325-.893-.216-.236-.51-.356-.888-.356M155.15 99.77h-9.57c-.35 0-.626.092-.837.285-.207.186-.313.452-.313.786 0 .322.106.584.313.79.21.198.488.3.838.3h3.573v10.537c0 .366.104.66.313.89.21.227.51.34.9.34s.688-.113.898-.34c.205-.23.313-.523.313-.89V101.93h3.572c.36 0 .648-.102.857-.3.21-.206.31-.468.31-.79 0-.333-.1-.6-.31-.785-.208-.194-.495-.284-.858-.284M170.187 99.972c-.403-.204-.747-.235-1.028-.097-.285.132-.54.372-.77.726l-3.147 4.883-3.248-4.882c-.243-.378-.52-.634-.828-.77-.313-.133-.666-.088-1.07.142-.645.458-.687 1.13-.12 1.998l3.972 5.693v4.784c0 .36.106.656.313.89.208.228.506.342.896.342.378 0 .67-.115.89-.343.215-.233.322-.53.322-.89v-4.885l3.913-5.855c.218-.323.327-.633.335-.927.006-.296-.136-.564-.433-.808M154.503 88.55c-.054.19-.127.38-.215.57-.085.195-.183.385-.293.567-.108.184-.21.353-.316.51-.098.147-.22.303-.373.463-.148.163-.302.31-.46.446-.155.14-.304.254-.445.346-.14.092-.24.136-.313.136-.21 0-.355-.064-.428-.184-.08-.117-.113-.277-.113-.473 0-.133.02-.283.068-.454.044-.17.104-.348.186-.533.077-.187.166-.38.267-.577.1-.195.21-.393.315-.578.114-.186.225-.37.34-.54.108-.17.212-.323.312-.456.053-.073.114-.146.197-.222.078-.078.167-.146.265-.212.094-.06.195-.11.303-.15.106-.04.21-.062.314-.062.123 0 .23.073.328.212.092.134.14.36.14.676 0 .16-.03.332-.082.517m3.363 2.075c-.03 0-.065.022-.1.066-.035.052-.072.103-.12.16-.158.214-.338.377-.544.484-.202.11-.464.165-.782.165-.132 0-.26-.033-.38-.097-.118-.063-.223-.177-.313-.344-.085-.164-.156-.393-.205-.676-.052-.284-.077-.647-.077-1.1 0-.16.013-.338.044-.53.032-.19.063-.377.097-.555.04-.18.07-.333.1-.47.027-.134.04-.222.04-.267 0-.078-.01-.145-.025-.183-.02-.037-.04-.075-.068-.102-.03-.03-.058-.063-.082-.1-.028-.032-.048-.092-.063-.165-.022-.063-.052-.127-.093-.195-.042-.07-.092-.126-.146-.178-.053-.056-.11-.098-.166-.133-.06-.03-.114-.05-.167-.05-.03 0-.063.013-.098.025-.036.02-.067.038-.103.054-.032.02-.07.033-.1.05s-.067.022-.103.022c-.034 0-.073-.006-.122-.022s-.098-.03-.15-.05c-.053-.016-.103-.034-.15-.054-.047-.013-.09-.025-.128-.025-.137 0-.31.063-.528.19-.214.132-.44.305-.682.523-.237.22-.473.476-.704.767-.23.294-.43.603-.596.928-.148.293-.277.555-.38.798-.104.246-.188.468-.25.676-.068.208-.115.403-.14.58-.026.183-.04.353-.04.518 0 .164.026.32.08.468.057.145.13.27.225.39.094.113.2.202.323.266.124.07.252.102.39.102.2 0 .43-.064.693-.197.262-.132.526-.303.8-.514.267-.212.528-.45.783-.716.253-.263.474-.527.657-.796.054.288.125.564.21.82.086.264.196.488.325.687.134.192.29.35.47.463.187.112.402.165.655.165.19 0 .38-.032.558-.104.183-.073.348-.16.502-.27.15-.113.29-.236.413-.373.123-.14.225-.27.296-.4.064-.09.105-.175.13-.263.032-.085.045-.16.045-.23 0-.047-.024-.094-.072-.145-.048-.043-.104-.065-.162-.065"/></svg>